
<mxfile host="app.diagrams.net" agent="Mozilla/5.0 (Windows NT 10.0; Win64; x64) AppleWebKit/537.36 (KHTML, like Gecko) Chrome/130.0.0.0 Safari/537.36" version="24.8.6">
  <diagram name="PÃ¡gina-1" id="CVkzxgD_GABZoIBr-CSM">
    <mxGraphModel grid="1" page="1" gridSize="10" guides="1" tooltips="1" connect="1" arrows="1" fold="1" pageScale="1" pageWidth="827" pageHeight="1169" math="0" shadow="0">
      <root>
        <mxCell id="0" />
        <mxCell id="1" parent="0" />
        <mxCell id="xMkVvt8b0aIxDB4dzLkT-119" style="edgeStyle=orthogonalEdgeStyle;rounded=0;orthogonalLoop=1;jettySize=auto;html=1;exitX=1;exitY=0;exitDx=0;exitDy=0;entryX=0.5;entryY=1;entryDx=0;entryDy=0;" edge="1" parent="1" source="xMkVvt8b0aIxDB4dzLkT-35" target="xMkVvt8b0aIxDB4dzLkT-36">
          <mxGeometry relative="1" as="geometry" />
        </mxCell>
        <mxCell id="xMkVvt8b0aIxDB4dzLkT-120" style="edgeStyle=orthogonalEdgeStyle;rounded=0;orthogonalLoop=1;jettySize=auto;html=1;exitX=0.5;exitY=0;exitDx=0;exitDy=0;entryX=0.5;entryY=1;entryDx=0;entryDy=0;" edge="1" parent="1" source="xMkVvt8b0aIxDB4dzLkT-35" target="xMkVvt8b0aIxDB4dzLkT-37">
          <mxGeometry relative="1" as="geometry" />
        </mxCell>
        <mxCell id="xMkVvt8b0aIxDB4dzLkT-121" style="edgeStyle=orthogonalEdgeStyle;rounded=0;orthogonalLoop=1;jettySize=auto;html=1;exitX=0;exitY=0;exitDx=0;exitDy=0;entryX=1;entryY=0.5;entryDx=0;entryDy=0;" edge="1" parent="1" source="xMkVvt8b0aIxDB4dzLkT-35" target="xMkVvt8b0aIxDB4dzLkT-39">
          <mxGeometry relative="1" as="geometry" />
        </mxCell>
        <mxCell id="xMkVvt8b0aIxDB4dzLkT-122" style="edgeStyle=orthogonalEdgeStyle;rounded=0;orthogonalLoop=1;jettySize=auto;html=1;exitX=0;exitY=0.5;exitDx=0;exitDy=0;entryX=1;entryY=0.5;entryDx=0;entryDy=0;" edge="1" parent="1" source="xMkVvt8b0aIxDB4dzLkT-35" target="xMkVvt8b0aIxDB4dzLkT-38">
          <mxGeometry relative="1" as="geometry" />
        </mxCell>
        <mxCell id="xMkVvt8b0aIxDB4dzLkT-35" value="" style="rounded=0;whiteSpace=wrap;html=1;fillColor=#d5e8d4;strokeColor=#82b366;" vertex="1" parent="1">
          <mxGeometry x="-710" y="-280" width="160" height="70" as="geometry" />
        </mxCell>
        <mxCell id="xMkVvt8b0aIxDB4dzLkT-36" value="" style="ellipse;whiteSpace=wrap;html=1;" vertex="1" parent="1">
          <mxGeometry x="-610" y="-400" width="120" height="60" as="geometry" />
        </mxCell>
        <mxCell id="xMkVvt8b0aIxDB4dzLkT-37" value="" style="ellipse;whiteSpace=wrap;html=1;" vertex="1" parent="1">
          <mxGeometry x="-750" y="-425" width="120" height="60" as="geometry" />
        </mxCell>
        <mxCell id="xMkVvt8b0aIxDB4dzLkT-38" value="" style="ellipse;whiteSpace=wrap;html=1;" vertex="1" parent="1">
          <mxGeometry x="-900" y="-270" width="120" height="60" as="geometry" />
        </mxCell>
        <mxCell id="xMkVvt8b0aIxDB4dzLkT-39" value="" style="ellipse;whiteSpace=wrap;html=1;" vertex="1" parent="1">
          <mxGeometry x="-870" y="-365" width="120" height="60" as="geometry" />
        </mxCell>
        <mxCell id="ejG1m7sGCSCbNLlxMDxO-8" style="edgeStyle=orthogonalEdgeStyle;rounded=0;orthogonalLoop=1;jettySize=auto;html=1;exitX=0.5;exitY=1;exitDx=0;exitDy=0;" edge="1" parent="1" source="xMkVvt8b0aIxDB4dzLkT-49" target="xMkVvt8b0aIxDB4dzLkT-54">
          <mxGeometry relative="1" as="geometry" />
        </mxCell>
        <mxCell id="ejG1m7sGCSCbNLlxMDxO-9" style="edgeStyle=orthogonalEdgeStyle;rounded=0;orthogonalLoop=1;jettySize=auto;html=1;exitX=0.75;exitY=1;exitDx=0;exitDy=0;" edge="1" parent="1" source="xMkVvt8b0aIxDB4dzLkT-49" target="xMkVvt8b0aIxDB4dzLkT-90">
          <mxGeometry relative="1" as="geometry" />
        </mxCell>
        <mxCell id="ejG1m7sGCSCbNLlxMDxO-11" style="edgeStyle=orthogonalEdgeStyle;rounded=0;orthogonalLoop=1;jettySize=auto;html=1;exitX=1;exitY=0.25;exitDx=0;exitDy=0;" edge="1" parent="1" source="xMkVvt8b0aIxDB4dzLkT-49" target="xMkVvt8b0aIxDB4dzLkT-52">
          <mxGeometry relative="1" as="geometry" />
        </mxCell>
        <mxCell id="ejG1m7sGCSCbNLlxMDxO-12" style="edgeStyle=orthogonalEdgeStyle;rounded=0;orthogonalLoop=1;jettySize=auto;html=1;exitX=1;exitY=0;exitDx=0;exitDy=0;entryX=0.5;entryY=1;entryDx=0;entryDy=0;" edge="1" parent="1" source="xMkVvt8b0aIxDB4dzLkT-49" target="xMkVvt8b0aIxDB4dzLkT-51">
          <mxGeometry relative="1" as="geometry" />
        </mxCell>
        <mxCell id="ejG1m7sGCSCbNLlxMDxO-13" style="edgeStyle=orthogonalEdgeStyle;rounded=0;orthogonalLoop=1;jettySize=auto;html=1;exitX=1;exitY=1;exitDx=0;exitDy=0;entryX=0.5;entryY=0;entryDx=0;entryDy=0;" edge="1" parent="1" source="xMkVvt8b0aIxDB4dzLkT-49" target="xMkVvt8b0aIxDB4dzLkT-53">
          <mxGeometry relative="1" as="geometry" />
        </mxCell>
        <mxCell id="xMkVvt8b0aIxDB4dzLkT-49" value="" style="rounded=0;whiteSpace=wrap;html=1;fillColor=#d5e8d4;strokeColor=#82b366;" vertex="1" parent="1">
          <mxGeometry x="-200" y="127.5" width="160" height="70" as="geometry" />
        </mxCell>
        <mxCell id="xMkVvt8b0aIxDB4dzLkT-51" value="" style="ellipse;whiteSpace=wrap;html=1;" vertex="1" parent="1">
          <mxGeometry x="150" y="35" width="120" height="65" as="geometry" />
        </mxCell>
        <mxCell id="xMkVvt8b0aIxDB4dzLkT-52" value="" style="ellipse;whiteSpace=wrap;html=1;" vertex="1" parent="1">
          <mxGeometry x="190" y="170" width="120" height="65" as="geometry" />
        </mxCell>
        <mxCell id="xMkVvt8b0aIxDB4dzLkT-53" value="" style="ellipse;whiteSpace=wrap;html=1;" vertex="1" parent="1">
          <mxGeometry x="100" y="270" width="120" height="60" as="geometry" />
        </mxCell>
        <mxCell id="xMkVvt8b0aIxDB4dzLkT-54" value="" style="ellipse;whiteSpace=wrap;html=1;" vertex="1" parent="1">
          <mxGeometry x="-170" y="330" width="120" height="60" as="geometry" />
        </mxCell>
        <mxCell id="xMkVvt8b0aIxDB4dzLkT-55" style="edgeStyle=orthogonalEdgeStyle;rounded=0;orthogonalLoop=1;jettySize=auto;html=1;exitX=0.5;exitY=1;exitDx=0;exitDy=0;" edge="1" parent="1" source="xMkVvt8b0aIxDB4dzLkT-53" target="xMkVvt8b0aIxDB4dzLkT-53">
          <mxGeometry relative="1" as="geometry" />
        </mxCell>
        <mxCell id="xMkVvt8b0aIxDB4dzLkT-60" value="Produto" style="text;html=1;align=center;verticalAlign=middle;whiteSpace=wrap;rounded=0;" vertex="1" parent="1">
          <mxGeometry x="-150" y="148.75" width="60" height="30" as="geometry" />
        </mxCell>
        <mxCell id="xMkVvt8b0aIxDB4dzLkT-129" style="edgeStyle=orthogonalEdgeStyle;rounded=0;orthogonalLoop=1;jettySize=auto;html=1;exitX=0;exitY=0.5;exitDx=0;exitDy=0;entryX=0.5;entryY=0;entryDx=0;entryDy=0;" edge="1" parent="1" source="xMkVvt8b0aIxDB4dzLkT-65" target="xMkVvt8b0aIxDB4dzLkT-70">
          <mxGeometry relative="1" as="geometry" />
        </mxCell>
        <mxCell id="xMkVvt8b0aIxDB4dzLkT-130" style="edgeStyle=orthogonalEdgeStyle;rounded=0;orthogonalLoop=1;jettySize=auto;html=1;exitX=0.5;exitY=1;exitDx=0;exitDy=0;entryX=0.5;entryY=0;entryDx=0;entryDy=0;" edge="1" parent="1" source="xMkVvt8b0aIxDB4dzLkT-65" target="xMkVvt8b0aIxDB4dzLkT-68">
          <mxGeometry relative="1" as="geometry" />
        </mxCell>
        <mxCell id="xMkVvt8b0aIxDB4dzLkT-131" style="edgeStyle=orthogonalEdgeStyle;rounded=0;orthogonalLoop=1;jettySize=auto;html=1;exitX=1;exitY=1;exitDx=0;exitDy=0;entryX=0.5;entryY=0;entryDx=0;entryDy=0;" edge="1" parent="1" source="xMkVvt8b0aIxDB4dzLkT-65" target="xMkVvt8b0aIxDB4dzLkT-67">
          <mxGeometry relative="1" as="geometry" />
        </mxCell>
        <mxCell id="xMkVvt8b0aIxDB4dzLkT-65" value="" style="rounded=0;whiteSpace=wrap;html=1;fillColor=#d5e8d4;strokeColor=#82b366;" vertex="1" parent="1">
          <mxGeometry x="-710" y="520" width="160" height="75" as="geometry" />
        </mxCell>
        <mxCell id="xMkVvt8b0aIxDB4dzLkT-124" style="edgeStyle=orthogonalEdgeStyle;rounded=0;orthogonalLoop=1;jettySize=auto;html=1;exitX=0;exitY=0.5;exitDx=0;exitDy=0;entryX=0.5;entryY=0;entryDx=0;entryDy=0;" edge="1" parent="1" source="xMkVvt8b0aIxDB4dzLkT-66" target="xMkVvt8b0aIxDB4dzLkT-71">
          <mxGeometry relative="1" as="geometry" />
        </mxCell>
        <mxCell id="ejG1m7sGCSCbNLlxMDxO-32" style="edgeStyle=orthogonalEdgeStyle;rounded=0;orthogonalLoop=1;jettySize=auto;html=1;exitX=0.25;exitY=0;exitDx=0;exitDy=0;" edge="1" parent="1" source="xMkVvt8b0aIxDB4dzLkT-66" target="xMkVvt8b0aIxDB4dzLkT-74">
          <mxGeometry relative="1" as="geometry" />
        </mxCell>
        <mxCell id="ejG1m7sGCSCbNLlxMDxO-33" style="edgeStyle=orthogonalEdgeStyle;rounded=0;orthogonalLoop=1;jettySize=auto;html=1;exitX=0;exitY=1;exitDx=0;exitDy=0;" edge="1" parent="1" source="xMkVvt8b0aIxDB4dzLkT-66" target="xMkVvt8b0aIxDB4dzLkT-72">
          <mxGeometry relative="1" as="geometry" />
        </mxCell>
        <mxCell id="xMkVvt8b0aIxDB4dzLkT-66" value="" style="rounded=0;whiteSpace=wrap;html=1;fillColor=#d5e8d4;strokeColor=#82b366;" vertex="1" parent="1">
          <mxGeometry x="-710" y="127.5" width="160" height="72.5" as="geometry" />
        </mxCell>
        <mxCell id="xMkVvt8b0aIxDB4dzLkT-67" value="" style="ellipse;whiteSpace=wrap;html=1;" vertex="1" parent="1">
          <mxGeometry x="-535" y="780" width="120" height="60" as="geometry" />
        </mxCell>
        <mxCell id="xMkVvt8b0aIxDB4dzLkT-68" value="" style="ellipse;whiteSpace=wrap;html=1;" vertex="1" parent="1">
          <mxGeometry x="-680" y="790" width="120" height="60" as="geometry" />
        </mxCell>
        <mxCell id="xMkVvt8b0aIxDB4dzLkT-70" value="" style="ellipse;whiteSpace=wrap;html=1;" vertex="1" parent="1">
          <mxGeometry x="-840" y="750" width="120" height="60" as="geometry" />
        </mxCell>
        <mxCell id="xMkVvt8b0aIxDB4dzLkT-71" value="" style="ellipse;whiteSpace=wrap;html=1;" vertex="1" parent="1">
          <mxGeometry x="-977" y="180" width="120" height="60" as="geometry" />
        </mxCell>
        <mxCell id="xMkVvt8b0aIxDB4dzLkT-72" value="" style="ellipse;whiteSpace=wrap;html=1;" vertex="1" parent="1">
          <mxGeometry x="-960" y="340" width="120" height="60" as="geometry" />
        </mxCell>
        <mxCell id="xMkVvt8b0aIxDB4dzLkT-73" value="" style="ellipse;whiteSpace=wrap;html=1;" vertex="1" parent="1">
          <mxGeometry x="-990" y="67.5" width="120" height="60" as="geometry" />
        </mxCell>
        <mxCell id="xMkVvt8b0aIxDB4dzLkT-74" value="" style="ellipse;whiteSpace=wrap;html=1;" vertex="1" parent="1">
          <mxGeometry x="-930" y="-80" width="120" height="60" as="geometry" />
        </mxCell>
        <mxCell id="xMkVvt8b0aIxDB4dzLkT-75" value="Cliente" style="text;html=1;align=center;verticalAlign=middle;whiteSpace=wrap;rounded=0;" vertex="1" parent="1">
          <mxGeometry x="-660" y="-260" width="60" height="30" as="geometry" />
        </mxCell>
        <mxCell id="xMkVvt8b0aIxDB4dzLkT-76" value="FuncionÃ¡rio" style="text;html=1;align=center;verticalAlign=middle;whiteSpace=wrap;rounded=0;" vertex="1" parent="1">
          <mxGeometry x="-660" y="542.5" width="60" height="30" as="geometry" />
        </mxCell>
        <mxCell id="xMkVvt8b0aIxDB4dzLkT-90" value="" style="ellipse;whiteSpace=wrap;html=1;" vertex="1" parent="1">
          <mxGeometry x="-30" y="362.5" width="120" height="60" as="geometry" />
        </mxCell>
        <mxCell id="ejG1m7sGCSCbNLlxMDxO-23" style="edgeStyle=orthogonalEdgeStyle;rounded=0;orthogonalLoop=1;jettySize=auto;html=1;exitX=0;exitY=0;exitDx=0;exitDy=0;" edge="1" parent="1" source="xMkVvt8b0aIxDB4dzLkT-93" target="xMkVvt8b0aIxDB4dzLkT-103">
          <mxGeometry relative="1" as="geometry" />
        </mxCell>
        <mxCell id="ejG1m7sGCSCbNLlxMDxO-24" style="edgeStyle=orthogonalEdgeStyle;rounded=0;orthogonalLoop=1;jettySize=auto;html=1;exitX=0.5;exitY=0;exitDx=0;exitDy=0;entryX=0.5;entryY=1;entryDx=0;entryDy=0;" edge="1" parent="1" source="xMkVvt8b0aIxDB4dzLkT-93" target="xMkVvt8b0aIxDB4dzLkT-101">
          <mxGeometry relative="1" as="geometry" />
        </mxCell>
        <mxCell id="ejG1m7sGCSCbNLlxMDxO-25" style="edgeStyle=orthogonalEdgeStyle;rounded=0;orthogonalLoop=1;jettySize=auto;html=1;exitX=1;exitY=0;exitDx=0;exitDy=0;entryX=0.5;entryY=1;entryDx=0;entryDy=0;" edge="1" parent="1" source="xMkVvt8b0aIxDB4dzLkT-93" target="xMkVvt8b0aIxDB4dzLkT-99">
          <mxGeometry relative="1" as="geometry" />
        </mxCell>
        <mxCell id="xMkVvt8b0aIxDB4dzLkT-93" value="" style="rounded=0;whiteSpace=wrap;html=1;fillColor=#d5e8d4;strokeColor=#82b366;" vertex="1" parent="1">
          <mxGeometry x="-200" y="-280" width="160" height="70" as="geometry" />
        </mxCell>
        <mxCell id="xMkVvt8b0aIxDB4dzLkT-99" value="" style="ellipse;whiteSpace=wrap;html=1;" vertex="1" parent="1">
          <mxGeometry x="50" y="-425" width="120" height="60" as="geometry" />
        </mxCell>
        <mxCell id="xMkVvt8b0aIxDB4dzLkT-101" value="" style="ellipse;whiteSpace=wrap;html=1;" vertex="1" parent="1">
          <mxGeometry x="-130" y="-450" width="120" height="60" as="geometry" />
        </mxCell>
        <mxCell id="xMkVvt8b0aIxDB4dzLkT-103" value="" style="ellipse;whiteSpace=wrap;html=1;" vertex="1" parent="1">
          <mxGeometry x="-340" y="-440" width="120" height="60" as="geometry" />
        </mxCell>
        <mxCell id="xMkVvt8b0aIxDB4dzLkT-108" value="Fornecedor" style="text;html=1;align=center;verticalAlign=middle;whiteSpace=wrap;rounded=0;" vertex="1" parent="1">
          <mxGeometry x="-150" y="-260" width="60" height="30" as="geometry" />
        </mxCell>
        <mxCell id="xMkVvt8b0aIxDB4dzLkT-123" style="edgeStyle=orthogonalEdgeStyle;rounded=0;orthogonalLoop=1;jettySize=auto;html=1;exitX=0;exitY=0;exitDx=0;exitDy=0;entryX=0.994;entryY=0.38;entryDx=0;entryDy=0;entryPerimeter=0;" edge="1" parent="1" source="xMkVvt8b0aIxDB4dzLkT-66" target="xMkVvt8b0aIxDB4dzLkT-73">
          <mxGeometry relative="1" as="geometry" />
        </mxCell>
        <mxCell id="ejG1m7sGCSCbNLlxMDxO-3" value="&lt;b style=&quot;font-size: 20px;&quot;&gt;FAZ&lt;/b&gt;&lt;div&gt;(1,N)&lt;/div&gt;" style="html=1;whiteSpace=wrap;aspect=fixed;shape=isoRectangle;fillColor=#fad9d5;strokeColor=#ae4132;" vertex="1" parent="1">
          <mxGeometry x="-705" y="-100" width="150" height="90" as="geometry" />
        </mxCell>
        <mxCell id="ejG1m7sGCSCbNLlxMDxO-4" value="Pedido" style="text;html=1;align=center;verticalAlign=middle;whiteSpace=wrap;rounded=0;" vertex="1" parent="1">
          <mxGeometry x="-660" y="148.75" width="60" height="30" as="geometry" />
        </mxCell>
        <mxCell id="ejG1m7sGCSCbNLlxMDxO-17" value="" style="shape=flexArrow;endArrow=classic;html=1;rounded=0;exitX=0.5;exitY=1;exitDx=0;exitDy=0;strokeColor=default;" edge="1" parent="1" source="xMkVvt8b0aIxDB4dzLkT-35">
          <mxGeometry width="50" height="50" relative="1" as="geometry">
            <mxPoint x="-630" y="-200" as="sourcePoint" />
            <mxPoint x="-630" y="-100" as="targetPoint" />
          </mxGeometry>
        </mxCell>
        <mxCell id="ejG1m7sGCSCbNLlxMDxO-18" value="" style="shape=flexArrow;endArrow=classic;html=1;rounded=0;entryX=0.5;entryY=0;entryDx=0;entryDy=0;" edge="1" parent="1" target="xMkVvt8b0aIxDB4dzLkT-66">
          <mxGeometry width="50" height="50" relative="1" as="geometry">
            <mxPoint x="-630" y="-10" as="sourcePoint" />
            <mxPoint x="-630" y="90" as="targetPoint" />
          </mxGeometry>
        </mxCell>
        <mxCell id="ejG1m7sGCSCbNLlxMDxO-19" value="" style="html=1;whiteSpace=wrap;aspect=fixed;shape=isoRectangle;fontSize=20;fillColor=#fad9d5;strokeColor=#ae4132;" vertex="1" parent="1">
          <mxGeometry x="-460" y="118.75" width="150" height="90" as="geometry" />
        </mxCell>
        <mxCell id="ejG1m7sGCSCbNLlxMDxO-20" value="" style="endArrow=none;html=1;rounded=0;exitX=1;exitY=0.5;exitDx=0;exitDy=0;" edge="1" parent="1" source="xMkVvt8b0aIxDB4dzLkT-66">
          <mxGeometry width="50" height="50" relative="1" as="geometry">
            <mxPoint x="-530" y="163.49" as="sourcePoint" />
            <mxPoint x="-460" y="163.49" as="targetPoint" />
          </mxGeometry>
        </mxCell>
        <mxCell id="ejG1m7sGCSCbNLlxMDxO-21" value="" style="endArrow=none;html=1;rounded=0;entryX=0;entryY=0.5;entryDx=0;entryDy=0;" edge="1" parent="1" target="xMkVvt8b0aIxDB4dzLkT-49">
          <mxGeometry width="50" height="50" relative="1" as="geometry">
            <mxPoint x="-310" y="163.49" as="sourcePoint" />
            <mxPoint x="-230" y="163.99" as="targetPoint" />
          </mxGeometry>
        </mxCell>
        <mxCell id="ejG1m7sGCSCbNLlxMDxO-22" value="&lt;span style=&quot;font-size: 20px;&quot;&gt;&lt;b&gt;CONTÃM&lt;/b&gt;&lt;/span&gt;&lt;div&gt;&lt;span style=&quot;&quot;&gt;(N,N)&lt;/span&gt;&lt;/div&gt;" style="text;html=1;align=center;verticalAlign=middle;whiteSpace=wrap;rounded=0;" vertex="1" parent="1">
          <mxGeometry x="-415" y="148.75" width="60" height="30" as="geometry" />
        </mxCell>
        <mxCell id="ejG1m7sGCSCbNLlxMDxO-26" value="" style="html=1;whiteSpace=wrap;aspect=fixed;shape=isoRectangle;fillColor=#fad9d5;strokeColor=#ae4132;" vertex="1" parent="1">
          <mxGeometry x="-195" y="-100" width="150" height="90" as="geometry" />
        </mxCell>
        <mxCell id="ejG1m7sGCSCbNLlxMDxO-27" value="" style="shape=flexArrow;endArrow=classic;html=1;rounded=0;entryX=0.5;entryY=0;entryDx=0;entryDy=0;entryPerimeter=0;" edge="1" parent="1" target="ejG1m7sGCSCbNLlxMDxO-26">
          <mxGeometry width="50" height="50" relative="1" as="geometry">
            <mxPoint x="-120.36000000000001" y="-210" as="sourcePoint" />
            <mxPoint x="-120" y="-150" as="targetPoint" />
          </mxGeometry>
        </mxCell>
        <mxCell id="ejG1m7sGCSCbNLlxMDxO-28" value="" style="shape=flexArrow;endArrow=classic;html=1;rounded=0;entryX=0.5;entryY=0;entryDx=0;entryDy=0;" edge="1" parent="1" target="xMkVvt8b0aIxDB4dzLkT-49">
          <mxGeometry width="50" height="50" relative="1" as="geometry">
            <mxPoint x="-120.36" y="-10" as="sourcePoint" />
            <mxPoint x="-120.36" y="100" as="targetPoint" />
          </mxGeometry>
        </mxCell>
        <mxCell id="ejG1m7sGCSCbNLlxMDxO-30" value="FORNECE&lt;div style=&quot;font-size: 12px;&quot;&gt;&lt;span style=&quot;font-weight: normal;&quot;&gt;(N, N)&lt;/span&gt;&lt;/div&gt;" style="text;html=1;align=center;verticalAlign=middle;whiteSpace=wrap;rounded=0;fontSize=20;fontStyle=1" vertex="1" parent="1">
          <mxGeometry x="-150" y="-70" width="60" height="30" as="geometry" />
        </mxCell>
        <mxCell id="ejG1m7sGCSCbNLlxMDxO-44" value="" style="html=1;whiteSpace=wrap;aspect=fixed;shape=isoRectangle;fillColor=#fad9d5;strokeColor=#ae4132;" vertex="1" parent="1">
          <mxGeometry x="-705" y="300" width="150" height="90" as="geometry" />
        </mxCell>
        <mxCell id="ejG1m7sGCSCbNLlxMDxO-46" value="&lt;font size=&quot;1&quot;&gt;&lt;b style=&quot;font-size: 18px;&quot;&gt;PROCESSA&lt;/b&gt;&lt;/font&gt;&lt;div&gt;&lt;font style=&quot;font-size: 17px;&quot;&gt;&lt;b style=&quot;font-size: 18px;&quot;&gt;&lt;br&gt;&lt;/b&gt;&lt;/font&gt;&lt;/div&gt;" style="text;html=1;align=center;verticalAlign=middle;whiteSpace=wrap;rounded=0;" vertex="1" parent="1">
          <mxGeometry x="-660" y="340" width="60" height="30" as="geometry" />
        </mxCell>
        <mxCell id="ejG1m7sGCSCbNLlxMDxO-47" value="(1, N)" style="text;html=1;align=center;verticalAlign=middle;whiteSpace=wrap;rounded=0;" vertex="1" parent="1">
          <mxGeometry x="-660" y="345" width="60" height="30" as="geometry" />
        </mxCell>
        <mxCell id="ejG1m7sGCSCbNLlxMDxO-48" value="" style="shape=flexArrow;endArrow=classic;html=1;rounded=0;exitX=0.5;exitY=0;exitDx=0;exitDy=0;exitPerimeter=0;entryX=0.5;entryY=1;entryDx=0;entryDy=0;" edge="1" parent="1" source="ejG1m7sGCSCbNLlxMDxO-44" target="xMkVvt8b0aIxDB4dzLkT-66">
          <mxGeometry width="50" height="50" relative="1" as="geometry">
            <mxPoint x="-630" y="293.75" as="sourcePoint" />
            <mxPoint x="-630" y="208.75" as="targetPoint" />
          </mxGeometry>
        </mxCell>
        <mxCell id="ejG1m7sGCSCbNLlxMDxO-49" value="" style="shape=flexArrow;endArrow=classic;html=1;rounded=0;entryX=0.5;entryY=1;entryDx=0;entryDy=0;entryPerimeter=0;" edge="1" parent="1" target="ejG1m7sGCSCbNLlxMDxO-44">
          <mxGeometry width="50" height="50" relative="1" as="geometry">
            <mxPoint x="-630" y="520" as="sourcePoint" />
            <mxPoint x="-630" y="440" as="targetPoint" />
          </mxGeometry>
        </mxCell>
        <mxCell id="ejG1m7sGCSCbNLlxMDxO-50" value="id_cliente (primary key)" style="text;html=1;align=center;verticalAlign=middle;whiteSpace=wrap;rounded=0;" vertex="1" parent="1">
          <mxGeometry x="-580" y="-385" width="60" height="30" as="geometry" />
        </mxCell>
        <mxCell id="ejG1m7sGCSCbNLlxMDxO-51" value="nome" style="text;html=1;align=center;verticalAlign=middle;whiteSpace=wrap;rounded=0;" vertex="1" parent="1">
          <mxGeometry x="-720" y="-410" width="60" height="30" as="geometry" />
        </mxCell>
        <mxCell id="ejG1m7sGCSCbNLlxMDxO-52" value="telefone" style="text;html=1;align=center;verticalAlign=middle;whiteSpace=wrap;rounded=0;" vertex="1" parent="1">
          <mxGeometry x="-840" y="-350" width="60" height="30" as="geometry" />
        </mxCell>
        <mxCell id="ejG1m7sGCSCbNLlxMDxO-53" value="endereco" style="text;html=1;align=center;verticalAlign=middle;whiteSpace=wrap;rounded=0;" vertex="1" parent="1">
          <mxGeometry x="-870" y="-255" width="60" height="30" as="geometry" />
        </mxCell>
        <mxCell id="ejG1m7sGCSCbNLlxMDxO-54" value="id_pedido&lt;div&gt;(primary key)&lt;/div&gt;" style="text;html=1;align=center;verticalAlign=middle;whiteSpace=wrap;rounded=0;" vertex="1" parent="1">
          <mxGeometry x="-900" y="-65" width="60" height="30" as="geometry" />
        </mxCell>
        <mxCell id="ejG1m7sGCSCbNLlxMDxO-56" value="data_pedido" style="text;html=1;align=center;verticalAlign=middle;whiteSpace=wrap;rounded=0;" vertex="1" parent="1">
          <mxGeometry x="-960" y="82.5" width="60" height="30" as="geometry" />
        </mxCell>
        <mxCell id="ejG1m7sGCSCbNLlxMDxO-57" value="tipo_pedido" style="text;html=1;align=center;verticalAlign=middle;whiteSpace=wrap;rounded=0;" vertex="1" parent="1">
          <mxGeometry x="-947" y="195" width="60" height="30" as="geometry" />
        </mxCell>
        <mxCell id="ejG1m7sGCSCbNLlxMDxO-58" value="status_pedido" style="text;html=1;align=center;verticalAlign=middle;whiteSpace=wrap;rounded=0;" vertex="1" parent="1">
          <mxGeometry x="-930" y="355" width="60" height="30" as="geometry" />
        </mxCell>
        <mxCell id="ejG1m7sGCSCbNLlxMDxO-59" value="estoque" style="text;html=1;align=center;verticalAlign=middle;whiteSpace=wrap;rounded=0;" vertex="1" parent="1">
          <mxGeometry x="-140" y="345" width="60" height="30" as="geometry" />
        </mxCell>
        <mxCell id="ejG1m7sGCSCbNLlxMDxO-60" value="preco" style="text;html=1;align=center;verticalAlign=middle;whiteSpace=wrap;rounded=0;" vertex="1" parent="1">
          <mxGeometry y="377.5" width="60" height="30" as="geometry" />
        </mxCell>
        <mxCell id="ejG1m7sGCSCbNLlxMDxO-61" value="categoria" style="text;html=1;align=center;verticalAlign=middle;whiteSpace=wrap;rounded=0;" vertex="1" parent="1">
          <mxGeometry x="130" y="285" width="60" height="30" as="geometry" />
        </mxCell>
        <mxCell id="ejG1m7sGCSCbNLlxMDxO-62" value="nome_produto" style="text;html=1;align=center;verticalAlign=middle;whiteSpace=wrap;rounded=0;" vertex="1" parent="1">
          <mxGeometry x="220" y="187.5" width="60" height="30" as="geometry" />
        </mxCell>
        <mxCell id="ejG1m7sGCSCbNLlxMDxO-63" value="id_produto&lt;div&gt;(primary key)&lt;/div&gt;" style="text;html=1;align=center;verticalAlign=middle;whiteSpace=wrap;rounded=0;" vertex="1" parent="1">
          <mxGeometry x="180" y="52.5" width="60" height="30" as="geometry" />
        </mxCell>
        <mxCell id="ejG1m7sGCSCbNLlxMDxO-64" value="id_fornecedor&lt;div&gt;(primary key)&lt;/div&gt;" style="text;html=1;align=center;verticalAlign=middle;whiteSpace=wrap;rounded=0;" vertex="1" parent="1">
          <mxGeometry x="-310" y="-425" width="60" height="30" as="geometry" />
        </mxCell>
        <mxCell id="ejG1m7sGCSCbNLlxMDxO-65" value="nome_fornecedor" style="text;html=1;align=center;verticalAlign=middle;whiteSpace=wrap;rounded=0;" vertex="1" parent="1">
          <mxGeometry x="-100" y="-435" width="60" height="30" as="geometry" />
        </mxCell>
        <mxCell id="ejG1m7sGCSCbNLlxMDxO-66" value="contato" style="text;html=1;align=center;verticalAlign=middle;whiteSpace=wrap;rounded=0;" vertex="1" parent="1">
          <mxGeometry x="80" y="-410" width="60" height="30" as="geometry" />
        </mxCell>
        <mxCell id="ejG1m7sGCSCbNLlxMDxO-67" value="cargo" style="text;html=1;align=center;verticalAlign=middle;whiteSpace=wrap;rounded=0;" vertex="1" parent="1">
          <mxGeometry x="-810" y="765" width="60" height="30" as="geometry" />
        </mxCell>
        <mxCell id="ejG1m7sGCSCbNLlxMDxO-68" value="nome_funcionÃ¡rio" style="text;html=1;align=center;verticalAlign=middle;whiteSpace=wrap;rounded=0;" vertex="1" parent="1">
          <mxGeometry x="-650" y="805" width="60" height="30" as="geometry" />
        </mxCell>
        <mxCell id="ejG1m7sGCSCbNLlxMDxO-69" value="id_funcionÃ¡rio&lt;div&gt;(primary key)&lt;/div&gt;" style="text;html=1;align=center;verticalAlign=middle;whiteSpace=wrap;rounded=0;" vertex="1" parent="1">
          <mxGeometry x="-505" y="795" width="60" height="30" as="geometry" />
        </mxCell>
      </root>
    </mxGraphModel>
  </diagram>
</mxfile>
